<?xml version="1.0" encoding="utf-8"?>
<!-- Generator: Adobe Illustrator 22.1.0, SVG Export Plug-In . SVG Version: 6.00 Build 0)  -->
<svg version="1.1" id="Layer_1" xmlns="http://www.w3.org/2000/svg" xmlns:xlink="http://www.w3.org/1999/xlink" x="0px" y="0px"
	 viewBox="0 0 53.8 128.1" style="enable-background:new 0 0 53.8 128.1;" xml:space="preserve">
<g>
	<g>
		<path d="M22.7,20.1c-1.3,2.1-2.6,4.1-3.9,6.2c-0.7,1.1-1.4,2.2-2.1,3.3c-2.3,3.6-4.5,7.1-6.8,10.6c-0.4,0.7-0.9,1.3-1.4,1.9
			c-0.4,0.5-1,0.7-1.6,0.2c-1.9-1.5-3.1-3.5-2.7-6c0.2-1.1,0.9-2.1,1.6-3.1c1.5-2.5,3.1-4.9,4.7-7.3c0.7-1.1,1.4-2.2,2.1-3.3
			c2.3-3.6,4.7-7.3,7-10.9c1.2-1.8,2.3-3.7,3.5-5.5c1-1.5,2.6-1.4,3.7,0.3c1,1.5,1.4,3.1,1.6,4.8c0.3,2.7,1.2,5.2,2.4,7.6
			c1.7,3.5,3.9,6.8,6.4,9.8c1,1.2,2,2.5,2.8,3.8c0.8,1.3,1.2,2.8,1,4.3c-0.2,1-1.1,1.5-2,1c-0.4-0.2-0.8-0.5-1.1-0.8
			c-2.1-2.8-4.3-5.7-6.3-8.6c-0.8-1.1-1.5-2.3-2.2-3.5c-0.1-0.2-0.3-0.3-0.7-0.6c-0.1,0.8-0.2,1.3-0.2,1.9
			c-0.6,8.2-0.3,16.3,0.3,24.5c0.5,6.8,1.4,13.6,2.9,20.2c1.1,4.7,2.2,9.5,3.4,14.2c1.1,4,2.4,8,3.8,11.9c1.2,3.4,2.6,6.7,4,9.9
			c1.3,3.1,2.8,6.2,4.2,9.2c0.8,1.7,1.7,3.2,2.5,4.9c0.4,0.9,0.5,1.9,0.5,2.9c0,1.5-1.3,2.1-2.5,1.2c-0.5-0.4-1-0.9-1.3-1.4
			c-1.7-3.2-3.3-6.5-4.9-9.8c-1.4-2.9-2.7-5.8-3.9-8.7c-1.1-2.6-2-5.2-2.9-7.8c-1-2.9-2.1-5.9-3-8.9c-1-3.2-1.8-6.4-2.6-9.7
			c-0.8-3.3-1.6-6.6-2.2-9.9c-0.9-4.8-1.7-9.7-2.3-14.5c-1.1-8.7-1.4-17.4-1.3-26.1c0-2.2,0.2-4.5,0.3-6.7c0-0.5-0.1-1-0.1-1.5
			C22.9,20.1,22.8,20.1,22.7,20.1z"/>
	</g>
</g>
</svg>
