<?xml version="1.0" encoding="utf-8"?>
<!-- Generator: Adobe Illustrator 22.1.0, SVG Export Plug-In . SVG Version: 6.00 Build 0)  -->
<svg version="1.1" id="Layer_1" xmlns="http://www.w3.org/2000/svg" xmlns:xlink="http://www.w3.org/1999/xlink" x="0px" y="0px"
	 viewBox="0 0 99.2 96.5" style="enable-background:new 0 0 99.2 96.5;" xml:space="preserve">
<g>
	<g>
		<path d="M88.2,90.9c-0.7,0-1.6-0.6-2.4-1.3c-0.5-0.4-1-0.9-1.4-1.3c-0.4-0.5-0.8-1-1.2-1.5c-0.5-0.6-1.1-1.2-1.7-1.8
			c-1.5-1.6-2.9-3.1-4.5-4.7c-2-2-4-4.1-6.2-5.9c-1-0.8-1.7-1.7-2.6-2.5c-1-0.9-2.1-1.7-3.1-2.5c-0.1-0.1-0.3-0.2-0.4-0.4
			c-1-1-1.9-2-2.9-2.9c-1.6-1.4-3.4-2.6-5-4c-1-0.8-1.9-1.6-2.9-2.4c-0.8-0.6-1.6-1.3-2.5-1.8c-0.5-0.3-0.9-0.3-1.4,0.2
			c-0.9,1.2-2,2.3-3,3.4c-1,1.2-2,2.5-3,3.8c-1.7,2.1-3.3,4.3-4.9,6.4c-2,2.6-3.9,5.2-5.8,7.9c-0.8,1.1-1.4,2.3-2.3,3.2
			c-1.6,1.8-2.5,4.2-4.6,5.6c-1.5,1-3.1,1.6-4.8,1.6c-1.7,0.1-3.3,0.2-5,0c-2.1-0.2-4.1-1.1-5.3-2.9c-0.6-0.9-0.9-2.1-0.7-3.3
			c0.4-2.5,1.2-4.8,2.6-7c1.2-1.9,2.2-3.9,3.5-5.8c1-1.6,2.3-3,3.4-4.5c0.9-1.2,1.7-2.3,2.6-3.5c0.5-0.7,1.1-1.4,1.6-2
			c1.3-1.6,2.7-3.3,4-4.9c0.1-0.1,0.2-0.2,0.3-0.4c1.7-1.7,3.3-3.4,5-5.1c0.9-1,1.8-2,2.7-3c0.4-0.5,0.5-1-0.2-1.4
			c-2.4-1.7-4.9-3.4-7.3-5c-2-1.4-4-2.7-6.1-4.1c-2.6-1.7-5.2-3.4-7.8-5.1c-1.5-1-3-2-4.5-3c-2.1-1.4-3.2-3.4-3.7-5.7
			c-0.4-1.8-0.6-3.6-0.5-5.4c0.2-2.5,1-4.9,3.4-6.2c0.7-0.4,1.6-0.6,2.4-0.5c2.7,0.3,5.2,1.1,7.7,2.3c4.2,2.1,8.2,4.5,11.9,7.2
			c2.8,2,5.5,4,8.2,6c1.5,1.1,2.8,2.3,4.2,3.5c1.6,1.3,3.1,2.6,4.7,3.9c0.4,0.4,0.7,0.3,1.1-0.1c1.3-1.3,2.7-2.6,4.1-3.8
			c1.5-1.4,3.1-2.7,4.6-4.1c1.1-1,2.1-2,3.2-3c1.6-1.4,3.2-2.9,4.9-4.3c1.4-1.2,2.8-2.4,4.2-3.5c1.4-1.1,2.8-2.2,4.1-3.4
			c0.7-0.6,1.2-1.3,1.9-1.7c1.5-1,2.6-2.4,4.5-2.7c0.8-0.1,1.6-0.3,2.4-0.4C85.8,7,88,7.4,90.1,8c1.7,0.5,3.2,1.4,4.2,2.9
			c0.5,0.7,0.2,2.5-0.5,3.2c-1.4,1.3-2.9,2.5-4.4,3.8c-0.8,0.7-1.6,1.4-2.5,2.1c-0.8,0.7-1.6,1.4-2.3,2.1c-2.3,2.1-4.7,4.2-7,6.4
			c-1.3,1.2-2.5,2.5-3.8,3.7c-2.6,2.6-5.2,5.1-7.7,7.7c-1.5,1.5-2.8,3.1-4.2,4.7c-0.2,0.2-0.2,0.9,0,1.1c0.9,1.1,1.9,2.1,3,3
			c1.4,1.3,2.8,2.5,4.2,3.8c4.4,4.3,8.7,8.6,13,12.9c1.7,1.7,3.4,3.5,5.1,5.3c1.4,1.5,2.9,3,4.1,4.6c0.7,1,1,2.4,1.4,3.6
			c0.1,0.4,0.2,0.8,0.3,1.2c0.5,3-0.3,5.8-1.4,8.5C91,89.8,90.1,90.8,88.2,90.9z"/>
	</g>
</g>
</svg>
